# xmcd
#
# Track frame offsets:
#	150
#	18852
#	32790
#	48449
#	63749
#	81481
#	97360
#	119154
#	134498
#	149564
#	174808
#	191989
#
# Disc length: 2761 seconds
#
# Revision: 2
# Processed by: cddbd v1.4PL0 Copyright (c) Steve Scherf et al.
# Submitted via: CDmax 1.9
#
DISCID=bd0ac70c
DTITLE=Jack Ingram - Hey You
DYEAR=1999
DGENRE=Country
TTITLE0=Biloxi
TTITLE1=Feel Like I'm Falling In Love
TTITLE2=Talk About
TTITLE3=How Many Days
TTITLE4=Work This Out
TTITLE5=I Would
TTITLE6=Barbie Doll
TTITLE7=Hey You
TTITLE8=Anymore Good Loving
TTITLE9=Inna From Mexico
TTITLE10=Mustang Burn
TTITLE11=Juanita
EXTD=
EXTT0=
EXTT1=
EXTT2=
EXTT3=
EXTT4=
EXTT5=
EXTT6=
EXTT7=
EXTT8=
EXTT9=
EXTT10=
EXTT11=
PLAYORDER=
